# Wavefront OBJ file
# Exported by Misfit Model 3D 1.2.4
# Tue Apr 21 11:00:35 2020

mtllib Lollipop.mtl

# 35 Vertices
v -0.72344 1.531646 0.0
v -0.17693 6.075149 0.0
v 0.700125 1.531646 0.0
v 0.153616 6.075149 0.0
v -1.405971 3.803397 0.0
v -0.011657 6.075149 0.0
v -0.011657 3.803397 0.0
v 1.382657 3.803397 0.0
v -0.011657 1.531646 0.0
v -1.405971 2.561365 0.0
v -0.708814 3.803397 0.0
v -0.708814 2.561365 0.0
v 0.344234 1.531646 0.0
v 0.6855 2.561365 0.0
v 1.382657 2.561365 0.0
v -0.011657 2.561365 0.0
v -0.367548 1.531646 0.0
v 0.6855 3.803397 0.0
v 0.847376 5.04543 0.0
v 0.6855 3.803397 0.0
v 0.15022 5.04543 0.0
v -0.094294 6.075149 0.0
v -0.708814 5.04543 0.0
v -0.870691 5.04543 0.0
v -0.011657 5.04543 0.0
v 0.070979 6.075149 0.0
v -0.708814 3.803397 0.0
v -0.137066 0.020788 0.0
v -0.137066 1.526458 0.0
v 0.079858 0.020788 0.0
v 0.079858 1.526458 0.0
v 29.73516 18.162557 0.0
v 29.73516 18.162557 0.0
v 29.73516 18.162557 0.0
v 29.73516 18.162557 0.0

# 108 Texture Coordinates
vt 0.0 1.0
vt 0.0 0.0
vt 1.0 0.0
vt 0.0 1.0
vt 0.0 0.0
vt 1.0 0.0
vt 0.0 1.0
vt 0.0 0.0
vt 1.0 0.0
vt 0.0 1.0
vt 0.0 0.0
vt 1.0 0.0
vt 0.0 1.0
vt 0.0 0.0
vt 1.0 0.0
vt 0.0 1.0
vt 0.0 0.0
vt 1.0 0.0
vt 0.0 1.0
vt 0.0 0.0
vt 1.0 0.0
vt 0.0 1.0
vt 0.0 0.0
vt 1.0 0.0
vt 0.0 1.0
vt 0.0 0.0
vt 1.0 0.0
vt 0.0 1.0
vt 0.0 0.0
vt 1.0 0.0
vt 0.0 1.0
vt 0.0 0.0
vt 1.0 0.0
vt 0.0 1.0
vt 0.0 0.0
vt 1.0 0.0
vt 0.0 1.0
vt 0.0 0.0
vt 1.0 0.0
vt 0.0 1.0
vt 0.0 0.0
vt 1.0 0.0
vt 0.0 1.0
vt 0.0 0.0
vt 1.0 0.0
vt 0.0 1.0
vt 0.0 0.0
vt 1.0 0.0
vt 0.0 1.0
vt 0.0 0.0
vt 1.0 0.0
vt 0.0 1.0
vt 0.0 0.0
vt 1.0 0.0
vt 0.0 1.0
vt 0.0 0.0
vt 1.0 0.0
vt 0.0 1.0
vt 0.0 0.0
vt 1.0 0.0
vt 0.0 1.0
vt 0.0 0.0
vt 1.0 0.0
vt 0.0 1.0
vt 0.0 0.0
vt 1.0 0.0
vt 0.0 1.0
vt 0.0 0.0
vt 1.0 0.0
vt 0.0 1.0
vt 0.0 0.0
vt 1.0 0.0
vt 0.0 1.0
vt 0.0 0.0
vt 1.0 0.0
vt 0.0 1.0
vt 0.0 0.0
vt 1.0 0.0
vt 0.0 1.0
vt 0.0 0.0
vt 1.0 0.0
vt 0.0 1.0
vt 0.0 0.0
vt 1.0 0.0
vt 0.0 1.0
vt 0.0 0.0
vt 1.0 0.0
vt 0.0 1.0
vt 0.0 0.0
vt 1.0 0.0
vt 0.0 1.0
vt 0.0 0.0
vt 1.0 0.0
vt 0.0 1.0
vt 0.0 0.0
vt 1.0 0.0
vt 0.0 1.0
vt 0.0 0.0
vt 1.0 0.0
vt 0.0 1.0
vt 0.0 0.0
vt 1.0 0.0
vt 0.0 1.0
vt 0.0 0.0
vt 1.0 0.0
vt 0.0 1.0
vt 0.0 0.0
vt 1.0 0.0

# 108 Vertex Normals
vn 0.0 0.0 -1.0
vn 0.0 0.0 -1.0
vn 0.0 0.0 -1.0
vn 0.0 0.0 -1.0
vn 0.0 0.0 -1.0
vn 0.0 0.0 -1.0
vn 0.0 0.0 -1.0
vn 0.0 0.0 -1.0
vn 0.0 0.0 -1.0
vn 0.0 0.0 -1.0
vn 0.0 0.0 -1.0
vn 0.0 0.0 -1.0
vn 0.0 0.0 -1.0
vn 0.0 0.0 -1.0
vn 0.0 0.0 -1.0
vn 0.0 0.0 -1.0
vn 0.0 0.0 -1.0
vn 0.0 0.0 -1.0
vn 0.0 0.0 -1.0
vn 0.0 0.0 -1.0
vn 0.0 0.0 -1.0
vn 0.0 0.0 -1.0
vn 0.0 0.0 -1.0
vn 0.0 0.0 -1.0
vn 0.0 0.0 -1.0
vn 0.0 0.0 -1.0
vn 0.0 0.0 -1.0
vn 0.0 0.0 -1.0
vn 0.0 0.0 -1.0
vn 0.0 0.0 -1.0
vn 0.0 0.0 -1.0
vn 0.0 0.0 -1.0
vn 0.0 0.0 -1.0
vn 0.0 0.0 -1.0
vn 0.0 0.0 -1.0
vn 0.0 0.0 -1.0
vn 0.0 0.0 -1.0
vn 0.0 0.0 -1.0
vn 0.0 0.0 -1.0
vn 0.0 0.0 -1.0
vn 0.0 0.0 -1.0
vn 0.0 0.0 -1.0
vn 0.0 0.0 -1.0
vn 0.0 0.0 -1.0
vn 0.0 0.0 -1.0
vn 0.0 0.0 -1.0
vn 0.0 0.0 -1.0
vn 0.0 0.0 -1.0
vn 0.0 0.0 -1.0
vn 0.0 0.0 -1.0
vn 0.0 0.0 -1.0
vn 0.0 0.0 -1.0
vn 0.0 0.0 -1.0
vn 0.0 0.0 -1.0
vn 0.0 0.0 -1.0
vn 0.0 0.0 -1.0
vn 0.0 0.0 -1.0
vn 0.0 0.0 -1.0
vn 0.0 0.0 -1.0
vn 0.0 0.0 -1.0
vn 0.0 0.0 -1.0
vn 0.0 0.0 -1.0
vn 0.0 0.0 -1.0
vn 0.0 0.0 -1.0
vn 0.0 0.0 -1.0
vn 0.0 0.0 -1.0
vn 0.0 0.0 -1.0
vn 0.0 0.0 -1.0
vn 0.0 0.0 -1.0
vn 0.0 0.0 -1.0
vn 0.0 0.0 -1.0
vn 0.0 0.0 -1.0
vn 0.0 0.0 -1.0
vn 0.0 0.0 -1.0
vn 0.0 0.0 -1.0
vn 0.0 0.0 -1.0
vn 0.0 0.0 -1.0
vn 0.0 0.0 -1.0
vn 0.0 0.0 -1.0
vn 0.0 0.0 -1.0
vn 0.0 0.0 -1.0
vn 0.0 0.0 -1.0
vn 0.0 0.0 -1.0
vn 0.0 0.0 -1.0
vn 0.0 0.0 -1.0
vn 0.0 0.0 -1.0
vn 0.0 0.0 -1.0
vn 0.0 0.0 -1.0
vn 0.0 0.0 -1.0
vn 0.0 0.0 -1.0
vn 0.0 0.0 -1.0
vn 0.0 0.0 -1.0
vn 0.0 0.0 -1.0
vn 0.0 0.0 -1.0
vn 0.0 0.0 -1.0
vn 0.0 0.0 -1.0
vn 0.0 0.0 -1.0
vn 0.0 0.0 -1.0
vn 0.0 0.0 -1.0
vn 0.0 0.0 -1.0
vn 0.0 0.0 -1.0
vn 0.0 0.0 -1.0
vn 0.0 0.0 -1.0
vn 0.0 0.0 -1.0
vn 0.0 0.0 -1.0
vn 0.0 0.0 -1.0
vn 0.0 0.0 -1.0
vn 0.0 0.0 -1.0

# 2 Ungrouped triangles

o ungrouped
g ungrouped

f 32/103/103 33/104/104 35/105/105
f 35/106/106 34/107/107 32/108/108
# Crown, 32 grouped triangles

usemtl Crown
o Crown
g Crown

f 1/1/1 10/2/2 12/3/3
f 4/4/4 19/5/5 21/6/6
f 2/7/7 22/8/8 24/9/9
f 4/10/10 21/11/11 26/12/12
f 5/13/13 23/14/14 27/15/15
f 3/16/16 13/17/17 15/18/18
f 1/19/19 12/20/20 17/21/21
f 8/22/22 14/23/23 18/24/24
f 5/25/25 11/26/26 10/27/27
f 7/28/28 12/29/29 11/30/30
f 10/31/31 11/32/32 12/33/33
f 9/34/34 14/35/35 13/36/36
f 8/37/37 15/38/38 14/39/39
f 13/40/40 14/41/41 15/42/42
f 7/43/43 16/44/44 12/45/45
f 9/46/46 17/47/47 16/48/48
f 12/49/49 16/50/50 17/51/51
f 9/52/52 16/53/53 14/54/54
f 7/55/55 18/56/56 16/57/57
f 14/58/58 16/59/59 18/60/60
f 8/61/61 20/62/62 19/63/63
f 7/64/64 21/65/65 20/66/66
f 19/67/67 20/68/68 21/69/69
f 6/70/70 23/71/71 22/72/72
f 5/73/73 24/74/74 23/75/75
f 22/76/76 23/77/77 24/78/78
f 7/79/79 25/80/80 21/81/81
f 6/82/82 26/83/83 25/84/84
f 21/85/85 25/86/86 26/87/87
f 6/88/88 25/89/89 23/90/90
f 7/91/91 27/92/92 25/93/93
f 23/94/94 25/95/95 27/96/96
# Trunk, 2 grouped triangles

usemtl Trunk
o Trunk
g Trunk

f 28/97/97 29/98/98 31/99/99
f 31/100/100 30/101/101 28/102/102
